<?xml version="1.0" encoding="UTF-8"?>
<svg width="13px" height="10px" viewBox="0 0 13 10" version="1.1" xmlns="http://www.w3.org/2000/svg" xmlns:xlink="http://www.w3.org/1999/xlink">
    <!-- Generator: Sketch 47 (45396) - http://www.bohemiancoding.com/sketch -->
    <title>Shape</title>
    <desc>Created with Sketch.</desc>
    <defs></defs>
    <g id="Page-1" stroke="none" stroke-width="1" fill="none" fill-rule="evenodd">
        <g id="lp" transform="translate(-414.000000, -2861.000000)" fill="#FFFFFF">
            <g id="Полоса-4" transform="translate(146.000000, 2654.000000)">
                <g id="Система-налогообложе" transform="translate(1.000000, 140.000000)">
                    <g id="check" transform="translate(262.000000, 60.000000)">
                        <path d="M17.3008696,9.98086957 L17.3008696,9.98086957 L15.7325217,11.5471304 L15.7325217,11.5471304 L11.0295652,16.2490435 L11.0295652,16.2490435 C10.7457391,16.5328696 10.3544348,16.7081739 9.9213913,16.7081739 C9.48834783,16.7081739 9.096,16.5328696 8.81217391,16.2490435 L8.81217391,16.2490435 L5.67652174,13.1144348 L5.67652174,13.1144348 C5.39373913,12.8316522 5.2173913,12.4393043 5.2173913,12.0073043 C5.2173913,11.1401739 5.91965217,10.4389565 6.78573913,10.4389565 C7.21878261,10.4389565 7.61008696,10.6142609 7.89391304,10.8991304 L7.89391304,10.8991304 L9.9213913,12.9245217 L13.5161739,9.33078261 L15.0834783,7.76452174 L15.0834783,7.76452174 C15.3673043,7.48069565 15.7596522,7.30434783 16.1916522,7.30434783 C17.0577391,7.30434783 17.76,8.0066087 17.76,8.87165217 C17.76,9.30573913 17.5846957,9.69704348 17.3008696,9.98086957 L17.3008696,9.98086957 Z" id="Shape"></path>
                    </g>
                </g>
            </g>
        </g>
    </g>
</svg>